ply
format ascii 1.0
comment Created by Blender 2.69 (sub 0) - www.blender.org, source file: ''
element vertex 246
property float x
property float y
property float z
property float nx
property float ny
property float nz
element face 82
property list uchar uint vertex_indices
end_header
0.447929 0.787452 -0.296801 0.892218 -0.240205 0.382424
0.131743 0.451256 0.229712 0.892218 -0.240205 0.382424
0.335628 0.422483 -0.264036 0.892218 -0.240205 0.382424
0.447929 0.787452 -0.296801 0.892218 -0.240030 0.382535
0.190233 0.824065 0.327219 0.892218 -0.240030 0.382535
0.131743 0.451256 0.229712 0.892218 -0.240030 0.382535
-0.440153 0.431404 0.152387 -0.121259 -0.234753 0.964462
0.190233 0.824065 0.327219 -0.121259 -0.234753 0.964462
-0.532486 0.796594 0.229667 -0.121259 -0.234753 0.964462
0.131743 0.451256 0.229712 -0.122346 -0.233123 0.964720
0.190233 0.824065 0.327219 -0.122346 -0.233123 0.964720
-0.440153 0.431404 0.152387 -0.122346 -0.233123 0.964720
0.190233 0.824065 0.327219 -0.134040 0.510769 0.849205
0.138366 0.984783 0.222365 -0.134040 0.510769 0.849205
-0.532486 0.796594 0.229667 -0.134040 0.510769 0.849205
-0.532486 0.796594 0.229667 -0.133186 0.507800 0.851117
0.138366 0.984783 0.222365 -0.133186 0.507800 0.851117
-0.474165 0.962877 0.139584 -0.133186 0.507800 0.851117
-0.532486 0.796594 0.229667 -0.907076 0.395805 0.143359
-0.474165 0.962877 0.139584 -0.907076 0.395805 0.143359
-0.655245 0.748396 -0.413999 -0.907076 0.395805 0.143359
-0.440153 0.431404 0.152387 -0.939163 -0.279653 0.199414
-0.532486 0.796594 0.229667 -0.939163 -0.279653 0.199414
-0.537334 0.394541 -0.356994 -0.939163 -0.279653 0.199414
-0.537334 0.394541 -0.356994 -0.938752 -0.280582 0.200048
-0.532486 0.796594 0.229667 -0.938752 -0.280582 0.200048
-0.655245 0.748396 -0.413999 -0.938752 -0.280582 0.200048
0.190233 0.824065 0.327219 0.824943 0.470533 0.313159
0.356745 0.953892 -0.306486 0.824943 0.470533 0.313159
0.138366 0.984783 0.222365 0.824943 0.470533 0.313159
0.447929 0.787452 -0.296801 0.825105 0.470258 0.313145
0.356745 0.953892 -0.306486 0.825105 0.470258 0.313145
0.190233 0.824065 0.327219 0.825105 0.470258 0.313145
-0.655245 0.748396 -0.413999 -0.907780 0.393822 0.144357
-0.474165 0.962877 0.139584 -0.907780 0.393822 0.144357
-0.578236 0.922961 -0.405970 -0.907780 0.393822 0.144357
0.447929 0.787452 -0.296801 0.707648 -0.276131 -0.650374
0.335628 0.422483 -0.264036 0.707648 -0.276131 -0.650374
-0.078363 0.732964 -0.846306 0.707648 -0.276131 -0.650374
-0.078363 0.732964 -0.846306 0.667099 0.323615 -0.671008
-0.089320 0.909066 -0.772268 0.667099 0.323615 -0.671008
0.447929 0.787452 -0.296801 0.667099 0.323615 -0.671008
-0.089320 0.909066 -0.772268 0.666808 0.326323 -0.669986
0.356745 0.953892 -0.306486 0.666808 0.326323 -0.669986
0.447929 0.787452 -0.296801 0.666808 0.326323 -0.669986
-0.078363 0.732964 -0.846306 0.706884 -0.277564 -0.650595
0.335628 0.422483 -0.264036 0.706884 -0.277564 -0.650595
-0.080854 0.381221 -0.698948 0.706884 -0.277564 -0.650595
-0.080854 0.381221 -0.698948 -0.574959 -0.312677 -0.756079
-0.655245 0.748396 -0.413999 -0.574959 -0.312677 -0.756079
-0.078363 0.732964 -0.846306 -0.574959 -0.312677 -0.756079
-0.078363 0.732964 -0.846306 -0.569588 0.286701 -0.770307
-0.655245 0.748396 -0.413999 -0.569588 0.286701 -0.770307
-0.578236 0.922961 -0.405970 -0.569588 0.286701 -0.770307
-0.078363 0.732964 -0.846306 -0.568847 0.288425 -0.770210
-0.578236 0.922961 -0.405970 -0.568847 0.288425 -0.770210
-0.089320 0.909066 -0.772268 -0.568847 0.288425 -0.770210
0.335628 0.422483 -0.264036 0.024324 -0.997158 0.071310
-0.537334 0.394541 -0.356994 0.024324 -0.997158 0.071310
-0.080854 0.381221 -0.698948 0.024324 -0.997158 0.071310
-0.080854 0.381221 -0.698948 -0.575184 -0.313388 -0.755613
-0.537334 0.394541 -0.356994 -0.575184 -0.313388 -0.755613
-0.655245 0.748396 -0.413999 -0.575184 -0.313388 -0.755613
0.131743 0.451256 0.229712 0.025346 -0.997323 0.068585
-0.440153 0.431404 0.152387 0.025346 -0.997323 0.068585
0.335628 0.422483 -0.264036 0.025346 -0.997323 0.068585
0.335628 0.422483 -0.264036 0.024742 -0.997415 0.067462
-0.440153 0.431404 0.152387 0.024742 -0.997415 0.067462
-0.537334 0.394541 -0.356994 0.024742 -0.997415 0.067462
-0.578236 0.922961 -0.405970 -0.026490 0.997339 -0.067918
-0.474165 0.962877 0.139584 -0.026490 0.997339 -0.067918
0.138366 0.984783 0.222365 -0.026490 0.997339 -0.067918
-0.578236 0.922961 -0.405970 -0.024357 0.997226 -0.070339
0.138366 0.984783 0.222365 -0.024357 0.997226 -0.070339
-0.089320 0.909066 -0.772268 -0.024357 0.997226 -0.070339
-0.089320 0.909066 -0.772268 -0.027522 0.997194 -0.069612
0.138366 0.984783 0.222365 -0.027522 0.997194 -0.069612
0.356745 0.953892 -0.306486 -0.027522 0.997194 -0.069612
-0.017819 -0.168498 -0.685533 0.524903 0.046902 -0.849869
0.335182 0.479780 -0.431734 0.524903 0.046902 -0.849869
0.505360 -0.556117 -0.383795 0.524903 0.046902 -0.849869
-0.490404 0.454093 -0.529348 0.101833 0.314091 -0.943916
0.335182 0.479780 -0.431734 0.101833 0.314091 -0.943916
-0.017819 -0.168498 -0.685533 0.101833 0.314091 -0.943916
-0.490404 0.454093 -0.529348 -0.270422 0.036079 -0.962066
-0.017819 -0.168498 -0.685533 -0.270422 0.036079 -0.962066
-0.647820 -0.586754 -0.524135 -0.270422 0.036079 -0.962066
-0.647820 -0.586754 -0.524135 0.117413 -0.506483 -0.854219
-0.017819 -0.168498 -0.685533 0.117413 -0.506483 -0.854219
0.505360 -0.556117 -0.383795 0.117413 -0.506483 -0.854219
-0.490404 0.454093 -0.529348 -0.007781 0.981284 -0.192412
-0.557795 0.563156 0.029590 -0.007781 0.981284 -0.192412
0.335182 0.479780 -0.431734 -0.007781 0.981284 -0.192412
0.335182 0.479780 -0.431734 -0.007781 0.981284 -0.192412
-0.557795 0.563156 0.029590 -0.007781 0.981284 -0.192412
0.267793 0.588843 0.127204 -0.007781 0.981284 -0.192412
-0.647820 -0.586754 -0.524135 -0.967463 0.145280 -0.207143
-0.711441 -0.332579 -0.048723 -0.967463 0.145280 -0.207143
-0.490404 0.454093 -0.529348 -0.967463 0.145280 -0.207143
-0.490404 0.454093 -0.529348 -0.971804 0.180009 -0.152295
-0.711441 -0.332579 -0.048723 -0.971804 0.180009 -0.152295
-0.557795 0.563156 0.029590 -0.971804 0.180009 -0.152295
0.335182 0.479780 -0.431734 0.982456 0.165387 0.086180
0.267793 0.588843 0.127204 0.982456 0.165387 0.086180
0.505360 -0.556117 -0.383795 0.982456 0.165387 0.086180
0.505360 -0.556117 -0.383795 0.981312 0.189983 0.030537
0.267793 0.588843 0.127204 0.981312 0.189983 0.030537
0.436942 -0.285495 0.131178 0.981312 0.189983 0.030537
-0.711441 -0.332579 -0.048723 -0.152080 -0.060165 0.986535
0.436942 -0.285495 0.131178 -0.152080 -0.060165 0.986535
-0.557795 0.563156 0.029590 -0.152080 -0.060165 0.986535
-0.557795 0.563156 0.029590 -0.116844 -0.018091 0.992985
0.436942 -0.285495 0.131178 -0.116844 -0.018091 0.992985
0.267793 0.588843 0.127204 -0.116844 -0.018091 0.992985
-0.016266 0.162714 0.020963 -0.839541 -0.301029 0.452275
0.330829 -0.364417 0.314410 -0.839541 -0.301029 0.452275
0.271163 -0.005409 0.442607 -0.839541 -0.301029 0.452275
0.063118 -0.314925 -0.149590 -0.839541 -0.301030 0.452273
0.330829 -0.364417 0.314410 -0.839541 -0.301030 0.452273
-0.016266 0.162714 0.020963 -0.839541 -0.301030 0.452273
0.271163 -0.005409 0.442607 -0.985661 -0.168276 0.012501
0.330829 -0.364417 0.314410 -0.985661 -0.168276 0.012501
0.347058 -0.431264 0.694255 -0.985661 -0.168276 0.012501
0.271163 -0.005409 0.442607 -0.985660 -0.168281 0.012492
0.347058 -0.431264 0.694255 -0.985660 -0.168281 0.012492
0.305577 -0.181681 0.783374 -0.985660 -0.168281 0.012492
0.305577 -0.181681 0.783374 0.121583 -0.315798 0.941004
0.347058 -0.431264 0.694255 0.121583 -0.315798 0.941004
0.525687 -0.397721 0.682432 0.121583 -0.315798 0.941004
0.524896 0.042226 0.425805 -0.133359 0.874710 0.465938
0.271163 -0.005409 0.442607 -0.133359 0.874710 0.465938
0.305577 -0.181681 0.783374 -0.133359 0.874710 0.465938
0.524896 0.042226 0.425805 -0.133401 0.874715 0.465916
0.305577 -0.181681 0.783374 -0.133401 0.874715 0.465916
0.484205 -0.148141 0.771552 -0.133401 0.874715 0.465916
0.484205 -0.148141 0.771552 0.121574 -0.315807 0.941003
0.305577 -0.181681 0.783374 0.121574 -0.315807 0.941003
0.525687 -0.397721 0.682432 0.121574 -0.315807 0.941003
0.310687 0.205479 0.052681 -0.134176 0.877270 0.460862
0.271163 -0.005409 0.442607 -0.134176 0.877270 0.460862
0.524896 0.042226 0.425805 -0.134176 0.877270 0.460862
0.310687 0.205479 0.052681 -0.158810 0.875080 0.457181
-0.016266 0.162714 0.020963 -0.158810 0.875080 0.457181
0.271163 -0.005409 0.442607 -0.158810 0.875080 0.457181
0.484205 -0.148141 0.771552 0.979951 0.101697 0.171327
0.525687 -0.397721 0.682432 0.979951 0.101697 0.171327
0.584566 -0.316784 0.297618 0.979951 0.101697 0.171327
0.484205 -0.148141 0.771552 0.979951 0.101701 0.171326
0.584566 -0.316784 0.297618 0.979951 0.101701 0.171326
0.524896 0.042226 0.425805 0.979951 0.101701 0.171326
0.063118 -0.314925 -0.149590 0.046195 0.342722 -0.938300
-0.016266 0.162714 0.020963 0.046195 0.342722 -0.938300
0.310687 0.205479 0.052681 0.046195 0.342722 -0.938300
0.310687 0.205479 0.052681 0.046190 0.342724 -0.938300
0.390071 -0.272160 -0.117875 0.046190 0.342724 -0.938300
0.063118 -0.314925 -0.149590 0.046190 0.342724 -0.938300
0.524896 0.042226 0.425805 0.880075 0.282540 -0.381627
0.390071 -0.272160 -0.117875 0.880075 0.282540 -0.381627
0.310687 0.205479 0.052681 0.880075 0.282540 -0.381627
0.524896 0.042226 0.425805 0.880077 0.282536 -0.381625
0.584566 -0.316784 0.297618 0.880077 0.282536 -0.381625
0.390071 -0.272160 -0.117875 0.880077 0.282536 -0.381625
0.584566 -0.316784 0.297618 0.170184 -0.969236 -0.177819
0.525687 -0.397721 0.682432 0.170184 -0.969236 -0.177819
0.330829 -0.364417 0.314410 0.170184 -0.969236 -0.177819
0.584566 -0.316784 0.297618 0.167987 -0.965311 -0.199887
0.330829 -0.364417 0.314410 0.167987 -0.965311 -0.199887
0.063118 -0.314925 -0.149590 0.167987 -0.965311 -0.199887
0.525687 -0.397721 0.682432 0.170227 -0.969224 -0.177840
0.347058 -0.431264 0.694255 0.170227 -0.969224 -0.177840
0.330829 -0.364417 0.314410 0.170227 -0.969224 -0.177840
0.063118 -0.314925 -0.149590 0.144155 -0.974468 -0.172137
0.390071 -0.272160 -0.117875 0.144155 -0.974468 -0.172137
0.584566 -0.316784 0.297618 0.144155 -0.974468 -0.172137
-0.730594 -0.603269 0.075831 -0.885752 -0.361247 0.291452
-0.680561 -0.932149 -0.179751 -0.885752 -0.361247 0.291452
-0.514103 -0.726461 0.581076 -0.885752 -0.361247 0.291452
-0.514103 -0.726461 0.581076 -0.887816 -0.356764 0.290692
-0.680561 -0.932149 -0.179751 -0.887816 -0.356764 0.290692
-0.482539 -0.941485 0.413578 -0.887816 -0.356764 0.290692
0.112988 -0.925436 0.492674 0.031165 -0.999004 -0.031944
-0.482539 -0.941485 0.413578 0.031165 -0.999004 -0.031944
0.433122 -0.898192 -0.047006 0.031165 -0.999004 -0.031944
0.433122 -0.898192 -0.047006 0.033675 -0.999069 -0.026960
-0.482539 -0.941485 0.413578 0.033675 -0.999069 -0.026960
-0.680561 -0.932149 -0.179751 0.033675 -0.999069 -0.026960
0.433122 -0.898192 -0.047006 0.079231 -0.896782 -0.435322
-0.680561 -0.932149 -0.179751 0.079231 -0.896782 -0.435322
0.486880 -0.793086 -0.253744 0.079231 -0.896782 -0.435322
0.486880 -0.793086 -0.253744 0.076436 -0.885524 -0.458262
-0.680561 -0.932149 -0.179751 0.076436 -0.885524 -0.458262
-0.695673 -0.824185 -0.390896 0.076436 -0.885524 -0.458262
0.436942 -0.285495 0.131178 -0.159800 0.274292 0.948276
-0.711441 -0.332579 -0.048723 -0.159800 0.274292 0.948276
0.381240 -0.575060 0.205549 -0.159800 0.274292 0.948276
0.381240 -0.575060 0.205549 -0.115618 0.421944 0.899220
-0.711441 -0.332579 -0.048723 -0.115618 0.421944 0.899220
-0.730594 -0.603269 0.075831 -0.115618 0.421944 0.899220
0.381240 -0.575060 0.205549 -0.055528 0.962179 0.266699
-0.730594 -0.603269 0.075831 -0.055528 0.962179 0.266699
0.081576 -0.717283 0.656263 -0.055528 0.962179 0.266699
0.081576 -0.717283 0.656263 -0.047146 0.965620 0.255646
-0.730594 -0.603269 0.075831 -0.047146 0.965620 0.255646
-0.514103 -0.726461 0.581076 -0.047146 0.965620 0.255646
-0.514103 -0.726461 0.581076 -0.088823 -0.620183 0.779413
-0.482539 -0.941485 0.413578 -0.088823 -0.620183 0.779413
0.081576 -0.717283 0.656263 -0.088823 -0.620183 0.779413
0.081576 -0.717283 0.656263 -0.086383 -0.623633 0.776930
-0.482539 -0.941485 0.413578 -0.086383 -0.623633 0.776930
0.112988 -0.925436 0.492674 -0.086383 -0.623633 0.776930
-0.730594 -0.603269 0.075831 -0.984088 -0.011942 -0.177279
-0.711441 -0.332579 -0.048723 -0.984088 -0.011942 -0.177279
-0.680561 -0.932149 -0.179751 -0.984088 -0.011942 -0.177279
-0.680561 -0.932149 -0.179751 -0.997359 -0.060236 0.040581
-0.711441 -0.332579 -0.048723 -0.997359 -0.060236 0.040581
-0.695673 -0.824185 -0.390896 -0.997359 -0.060236 0.040581
0.436942 -0.285495 0.131178 0.955140 -0.113474 0.273553
0.381240 -0.575060 0.205549 0.955140 -0.113474 0.273553
0.486880 -0.793086 -0.253744 0.955140 -0.113474 0.273553
0.433122 -0.898192 -0.047006 0.970959 -0.029656 0.237403
0.486880 -0.793086 -0.253744 0.970959 -0.029656 0.237403
0.381240 -0.575060 0.205549 0.970959 -0.029656 0.237403
0.433122 -0.898192 -0.047006 0.839287 -0.244710 0.485505
0.381240 -0.575060 0.205549 0.839287 -0.244710 0.485505
0.112988 -0.925436 0.492674 0.839287 -0.244710 0.485505
0.112988 -0.925436 0.492674 0.840782 -0.250360 0.480006
0.381240 -0.575060 0.205549 0.840782 -0.250360 0.480006
0.081576 -0.717283 0.656263 0.840782 -0.250360 0.480006
0.486880 -0.793086 -0.253744 0.118341 -0.484813 -0.866575
-0.647820 -0.586754 -0.524135 0.118341 -0.484813 -0.866575
0.505360 -0.556117 -0.383795 0.118341 -0.484813 -0.866575
-0.695673 -0.824185 -0.390896 0.112595 -0.503430 -0.856668
-0.647820 -0.586754 -0.524135 0.112595 -0.503430 -0.856668
0.486880 -0.793086 -0.253744 0.112595 -0.503430 -0.856668
0.486880 -0.793086 -0.253744 0.991012 -0.003901 0.133714
0.505360 -0.556117 -0.383795 0.991012 -0.003901 0.133714
0.436942 -0.285495 0.131178 0.991012 -0.003901 0.133714
0.436942 -0.285495 0.131178 0.177891 0.880629 -0.439143
0.505360 -0.556117 -0.383795 0.177891 0.880629 -0.439143
0.344492 -0.334890 -0.005326 0.177891 0.880629 -0.439143
0.436942 -0.285495 0.131178 0.016436 0.936589 -0.350045
0.344492 -0.334890 -0.005326 0.016436 0.936589 -0.350045
-0.711441 -0.332579 -0.048723 0.016436 0.936589 -0.350045
-0.695673 -0.824185 -0.390896 -0.978704 0.095195 -0.181869
-0.711441 -0.332579 -0.048723 -0.978704 0.095195 -0.181869
-0.647820 -0.586754 -0.524135 -0.978704 0.095195 -0.181869
3 0 1 2
3 3 4 5
3 6 7 8
3 9 10 11
3 12 13 14
3 15 16 17
3 18 19 20
3 21 22 23
3 24 25 26
3 27 28 29
3 30 31 32
3 33 34 35
3 36 37 38
3 39 40 41
3 42 43 44
3 45 46 47
3 48 49 50
3 51 52 53
3 54 55 56
3 57 58 59
3 60 61 62
3 63 64 65
3 66 67 68
3 69 70 71
3 72 73 74
3 75 76 77
3 78 79 80
3 81 82 83
3 84 85 86
3 87 88 89
3 90 91 92
3 93 94 95
3 96 97 98
3 99 100 101
3 102 103 104
3 105 106 107
3 108 109 110
3 111 112 113
3 114 115 116
3 117 118 119
3 120 121 122
3 123 124 125
3 126 127 128
3 129 130 131
3 132 133 134
3 135 136 137
3 138 139 140
3 141 142 143
3 144 145 146
3 147 148 149
3 150 151 152
3 153 154 155
3 156 157 158
3 159 160 161
3 162 163 164
3 165 166 167
3 168 169 170
3 171 172 173
3 174 175 176
3 177 178 179
3 180 181 182
3 183 184 185
3 186 187 188
3 189 190 191
3 192 193 194
3 195 196 197
3 198 199 200
3 201 202 203
3 204 205 206
3 207 208 209
3 210 211 212
3 213 214 215
3 216 217 218
3 219 220 221
3 222 223 224
3 225 226 227
3 228 229 230
3 231 232 233
3 234 235 236
3 237 238 239
3 240 241 242
3 243 244 245
