ply
format ascii 1.0
comment Created by Blender 2.69 (sub 0) - www.blender.org, source file: ''
element vertex 24
property float x
property float y
property float z
property float nx
property float ny
property float nz
element face 8
property list uchar uint vertex_indices
end_header
-0.170509 -1.150714 -0.170252 -0.024925 -0.016749 -0.999549
0.207590 0.090362 -0.200477 -0.024925 -0.016749 -0.999549
0.201778 -1.149960 -0.179548 -0.024925 -0.016749 -0.999549
0.201778 -1.149960 -0.179548 0.997965 -0.003602 0.063667
0.207590 0.090362 -0.200477 0.997965 -0.003602 0.063667
0.183071 0.091271 0.183906 0.997965 -0.003602 0.063667
0.201778 -1.149960 -0.179548 0.994947 -0.014113 0.099406
0.183071 0.091271 0.183906 0.994947 -0.014113 0.099406
0.164783 -1.146050 0.191287 0.994947 -0.014113 0.099406
0.164783 -1.146050 0.191287 -0.011687 0.006138 0.999913
0.183071 0.091271 0.183906 -0.011687 0.006138 0.999913
-0.201860 0.086533 0.179436 -0.011687 0.006138 0.999913
0.164783 -1.146050 0.191287 0.024924 0.017024 0.999544
-0.201860 0.086533 0.179436 0.024924 0.017024 0.999544
-0.207506 -1.147514 0.200595 0.024924 0.017024 0.999544
-0.207506 -1.147514 0.200595 -0.997966 0.003475 -0.063647
-0.201860 0.086533 0.179436 -0.997966 0.003475 -0.063647
-0.177347 0.086073 -0.204945 -0.997966 0.003475 -0.063647
-0.177347 0.086073 -0.204945 -0.995033 -0.008284 -0.099197
-0.170509 -1.150714 -0.170252 -0.995033 -0.008284 -0.099197
-0.207506 -1.147514 0.200595 -0.995033 -0.008284 -0.099197
-0.170509 -1.150714 -0.170252 0.011913 -0.027972 -0.999538
-0.177347 0.086073 -0.204945 0.011913 -0.027972 -0.999538
0.207590 0.090362 -0.200477 0.011913 -0.027972 -0.999538
3 0 1 2
3 3 4 5
3 6 7 8
3 9 10 11
3 12 13 14
3 15 16 17
3 18 19 20
3 21 22 23
