ply
format ascii 1.0
comment Created by Blender 2.69 (sub 0) - www.blender.org, source file: ''
element vertex 261
property float x
property float y
property float z
property float nx
property float ny
property float nz
element face 87
property list uchar uint vertex_indices
end_header
-0.662078 0.836202 0.103816 -0.941174 0.292522 -0.169181
-0.569394 1.125785 0.088912 -0.941174 0.292522 -0.169181
-0.455719 0.901775 -0.930802 -0.941174 0.292522 -0.169181
0.102163 0.794570 0.719771 -0.602441 0.233469 0.763254
0.089926 1.089072 0.620028 -0.602441 0.233469 0.763254
-0.662078 0.836202 0.103816 -0.602441 0.233469 0.763254
-0.662078 0.836202 0.103816 -0.602328 0.232088 0.763765
0.089926 1.089072 0.620028 -0.602328 0.232088 0.763765
-0.569394 1.125785 0.088912 -0.602328 0.232088 0.763765
-0.662078 0.836202 0.103816 -0.619587 -0.218160 0.754002
-0.558421 0.277495 0.027340 -0.619587 -0.218160 0.754002
0.102163 0.794570 0.719771 -0.619587 -0.218160 0.754002
-0.455719 0.901775 -0.930802 -0.967431 -0.151788 -0.202578
-0.380009 0.332343 -0.865699 -0.967431 -0.151788 -0.202578
-0.662078 0.836202 0.103816 -0.967431 -0.151788 -0.202578
-0.662078 0.836202 0.103816 -0.967432 -0.151757 -0.202595
-0.380009 0.332343 -0.865699 -0.967432 -0.151757 -0.202595
-0.558421 0.277495 0.027340 -0.967432 -0.151757 -0.202595
-0.455719 0.901775 -0.930802 -0.940978 0.293092 -0.169285
-0.569394 1.125785 0.088912 -0.940978 0.293092 -0.169285
-0.392379 1.180591 -0.800152 -0.940978 0.293092 -0.169285
0.102163 0.794570 0.719771 -0.619852 -0.217705 0.753915
-0.558421 0.277495 0.027340 -0.619852 -0.217705 0.753915
0.098480 0.241256 0.556964 -0.619852 -0.217705 0.753915
-0.455719 0.901775 -0.930802 0.074855 0.409130 -0.909401
-0.392379 1.180591 -0.800152 0.074855 0.409130 -0.909401
0.553425 0.924099 -0.837693 0.074855 0.409130 -0.909401
0.553425 0.924099 -0.837693 0.075430 0.411111 -0.908459
-0.392379 1.180591 -0.800152 0.075430 0.411111 -0.908459
0.472278 1.202405 -0.718487 0.075430 0.411111 -0.908459
0.553425 0.924099 -0.837693 0.949512 0.306172 -0.068449
0.472278 1.202405 -0.718487 0.949512 0.306172 -0.068449
0.650836 0.848287 0.174468 0.949512 0.306172 -0.068449
0.650836 0.848287 0.174468 0.953926 0.290362 -0.075602
0.472278 1.202405 -0.718487 0.953926 0.290362 -0.075602
0.561082 1.136718 0.149730 0.953926 0.290362 -0.075602
0.650836 0.848287 0.174468 0.666057 0.267001 0.696476
0.561082 1.136718 0.149730 0.666057 0.267001 0.696476
0.102163 0.794570 0.719771 0.666057 0.267001 0.696476
0.102163 0.794570 0.719771 0.699888 -0.205900 0.683931
0.098480 0.241256 0.556964 0.699888 -0.205900 0.683931
0.650836 0.848287 0.174468 0.699888 -0.205900 0.683931
0.650836 0.848287 0.174468 0.698716 -0.203656 0.685799
0.098480 0.241256 0.556964 0.698716 -0.203656 0.685799
0.572253 0.288450 0.088282 0.698716 -0.203656 0.685799
0.650836 0.848287 0.174468 0.986986 -0.122507 -0.104164
0.572253 0.288450 0.088282 0.986986 -0.122507 -0.104164
0.553425 0.924099 -0.837693 0.986986 -0.122507 -0.104164
0.102163 0.794570 0.719771 0.668028 0.263459 0.695936
0.561082 1.136718 0.149730 0.668028 0.263459 0.695936
0.089926 1.089072 0.620028 0.668028 0.263459 0.695936
0.553425 0.924099 -0.837693 0.988764 -0.113103 -0.097745
0.572253 0.288450 0.088282 0.988764 -0.113103 -0.097745
0.493279 0.354174 -0.786639 0.988764 -0.113103 -0.097745
0.553425 0.924099 -0.837693 0.093590 -0.098625 -0.990714
0.493279 0.354174 -0.786639 0.093590 -0.098625 -0.990714
-0.455719 0.901775 -0.930802 0.093590 -0.098625 -0.990714
-0.455719 0.901775 -0.930802 0.092206 -0.100996 -0.990605
0.493279 0.354174 -0.786639 0.092206 -0.100996 -0.990605
-0.380009 0.332343 -0.865699 0.092206 -0.100996 -0.990605
0.098480 0.241256 0.556964 0.023151 -0.996765 -0.076967
0.493279 0.354174 -0.786639 0.023151 -0.996765 -0.076967
0.572253 0.288450 0.088282 0.023151 -0.996765 -0.076967
-0.558421 0.277495 0.027340 0.029957 -0.998020 -0.055311
-0.380009 0.332343 -0.865699 0.029957 -0.998020 -0.055311
0.493279 0.354174 -0.786639 0.029957 -0.998020 -0.055311
-0.558421 0.277495 0.027340 0.010146 -0.996680 -0.080781
0.493279 0.354174 -0.786639 0.010146 -0.996680 -0.080781
0.098480 0.241256 0.556964 0.010146 -0.996680 -0.080781
-0.569394 1.125785 0.088912 -0.014293 0.996141 0.086600
0.089926 1.089072 0.620028 -0.014293 0.996141 0.086600
0.561082 1.136718 0.149730 -0.014293 0.996141 0.086600
-0.569394 1.125785 0.088912 -0.012827 0.998177 0.058978
0.561082 1.136718 0.149730 -0.012827 0.998177 0.058978
-0.392379 1.180591 -0.800152 -0.012827 0.998177 0.058978
-0.392379 1.180591 -0.800152 -0.032571 0.996365 0.078714
0.561082 1.136718 0.149730 -0.032571 0.996365 0.078714
0.472278 1.202405 -0.718487 -0.032571 0.996365 0.078714
-0.213497 0.192178 -1.375279 -0.425183 0.177429 -0.887546
-0.761093 -0.824981 -1.316290 -0.425183 0.177429 -0.887546
-0.760041 0.052198 -1.141438 -0.425183 0.177429 -0.887546
0.412673 0.070074 -1.230747 0.255251 0.185839 -0.948847
0.403682 -0.807245 -1.404996 0.255251 0.185839 -0.948847
-0.213497 0.192178 -1.375279 0.255251 0.185839 -0.948847
-0.213497 0.192178 -1.375279 0.255104 0.185750 -0.948904
0.403682 -0.807245 -1.404996 0.255104 0.185750 -0.948904
-0.228070 -0.630295 -1.540198 0.255104 0.185750 -0.948904
-0.213497 0.192178 -1.375279 -0.437106 0.184266 -0.880332
-0.228070 -0.630295 -1.540198 -0.437106 0.184266 -0.880332
-0.761093 -0.824981 -1.316290 -0.437106 0.184266 -0.880332
-0.760041 0.052198 -1.141438 -0.441437 0.580362 -0.684335
-0.560713 0.631429 -0.778790 -0.441437 0.580362 -0.684335
-0.213497 0.192178 -1.375279 -0.441437 0.580362 -0.684335
-0.213497 0.192178 -1.375279 -0.058687 0.787224 -0.613869
-0.560713 0.631429 -0.778790 -0.058687 0.787224 -0.613869
0.411734 0.646170 -0.852854 -0.058687 0.787224 -0.613869
-0.213497 0.192178 -1.375279 0.287323 0.525684 -0.800688
0.411734 0.646170 -0.852854 0.287323 0.525684 -0.800688
0.412673 0.070074 -1.230747 0.287323 0.525684 -0.800688
-0.761093 -0.824981 -1.316290 -0.917464 0.097725 -0.385630
-0.967103 -0.969285 -0.862737 -0.917464 0.097725 -0.385630
-0.894415 -0.046724 -0.801880 -0.917464 0.097725 -0.385630
-0.761093 -0.824981 -1.316290 -0.934389 0.070722 -0.349165
-0.894415 -0.046724 -0.801880 -0.934389 0.070722 -0.349165
-0.760041 0.052198 -1.141438 -0.934389 0.070722 -0.349165
-0.760041 0.052198 -1.141438 -0.872694 0.436856 -0.218086
-0.894415 -0.046724 -0.801880 -0.872694 0.436856 -0.218086
-0.560713 0.631429 -0.778790 -0.872694 0.436856 -0.218086
0.412673 0.070074 -1.230747 0.887961 0.080824 -0.452761
0.630654 -0.945100 -0.984463 0.887961 0.080824 -0.452761
0.403682 -0.807245 -1.404996 0.887961 0.080824 -0.452761
0.412673 0.070074 -1.230747 0.883120 0.258326 -0.391621
0.411734 0.646170 -0.852854 0.883120 0.258326 -0.391621
0.580631 -0.024272 -0.914231 0.883120 0.258326 -0.391621
0.412673 0.070074 -1.230747 0.890301 0.082522 -0.447834
0.580631 -0.024272 -0.914231 0.890301 0.082522 -0.447834
0.630654 -0.945100 -0.984463 0.890301 0.082522 -0.447834
0.745569 -1.052251 0.503067 0.995576 0.059623 -0.072616
0.630654 -0.945100 -0.984463 0.995576 0.059623 -0.072616
0.580631 -0.024272 -0.914231 0.995576 0.059623 -0.072616
0.745569 -1.052251 0.503067 0.994733 0.021399 -0.100242
0.580631 -0.024272 -0.914231 0.994733 0.021399 -0.100242
0.734246 -0.251684 0.561608 0.994733 0.021399 -0.100242
0.734246 -0.251684 0.561608 0.966462 0.249164 -0.062203
0.580631 -0.024272 -0.914231 0.966462 0.249164 -0.062203
0.411734 0.646170 -0.852854 0.966462 0.249164 -0.062203
0.734246 -0.251684 0.561608 0.948209 0.317302 -0.014790
0.411734 0.646170 -0.852854 0.948209 0.317302 -0.014790
0.551253 0.297667 0.615315 0.948209 0.317302 -0.014790
0.551253 0.297667 0.615315 0.002829 0.973021 0.230700
0.411734 0.646170 -0.852854 0.002829 0.973021 0.230700
-0.492471 0.281854 0.694808 0.002829 0.973021 0.230700
-0.560713 0.631429 -0.778790 0.002821 0.973022 0.230695
-0.492471 0.281854 0.694808 0.002821 0.973022 0.230695
0.411734 0.646170 -0.852854 0.002821 0.973022 0.230695
-0.967103 -0.969285 -0.862737 -0.994174 0.070131 0.081854
-0.852190 -1.076431 0.624757 -0.994174 0.070131 0.081854
-0.791283 -0.274906 0.677786 -0.994174 0.070131 0.081854
-0.967103 -0.969285 -0.862737 -0.994074 0.073009 0.080545
-0.791283 -0.274906 0.677786 -0.994074 0.073009 0.080545
-0.894415 -0.046724 -0.801880 -0.994074 0.073009 0.080545
-0.894415 -0.046724 -0.801880 -0.875002 0.465554 0.132781
-0.791283 -0.274906 0.677786 -0.875002 0.465554 0.132781
-0.492471 0.281854 0.694808 -0.875002 0.465554 0.132781
-0.894415 -0.046724 -0.801880 -0.889845 0.432970 0.143920
-0.492471 0.281854 0.694808 -0.889845 0.432970 0.143920
-0.560713 0.631429 -0.778790 -0.889845 0.432970 0.143920
0.745569 -1.052251 0.503067 0.009565 -0.997317 -0.072577
-0.852190 -1.076431 0.624757 0.009565 -0.997317 -0.072577
-0.967103 -0.969285 -0.862737 0.009565 -0.997317 -0.072577
0.745569 -1.052251 0.503067 0.009567 -0.997317 -0.072579
-0.967103 -0.969285 -0.862737 0.009567 -0.997317 -0.072579
0.630654 -0.945100 -0.984463 0.009567 -0.997317 -0.072579
0.630654 -0.945100 -0.984463 -0.008974 -0.951708 -0.306875
-0.967103 -0.969285 -0.862737 -0.008974 -0.951708 -0.306875
-0.761093 -0.824981 -1.316290 -0.008974 -0.951708 -0.306875
0.630654 -0.945100 -0.984463 -0.008901 -0.951621 -0.307147
-0.761093 -0.824981 -1.316290 -0.008901 -0.951621 -0.307147
0.403682 -0.807245 -1.404996 -0.008901 -0.951621 -0.307147
0.403682 -0.807245 -1.404996 -0.043610 -0.700190 -0.712624
-0.761093 -0.824981 -1.316290 -0.043610 -0.700190 -0.712624
-0.228070 -0.630295 -1.540198 -0.043610 -0.700190 -0.712624
-0.879699 -0.789714 0.246072 -0.993944 0.073110 0.082044
-0.815554 -0.849530 1.076466 -0.993944 0.073110 0.082044
-0.836381 -0.241380 0.282223 -0.993944 0.073110 0.082044
-0.836381 -0.241380 0.282223 -0.993943 0.073111 0.082045
-0.815554 -0.849530 1.076466 -0.993943 0.073111 0.082045
-0.772237 -0.301195 1.112619 -0.993943 0.073111 0.082045
0.551001 0.297772 0.615343 0.022969 0.878541 0.477115
-0.486706 0.281984 0.694372 0.022969 0.878541 0.477115
0.511621 -0.161684 1.463263 0.022969 0.878541 0.477115
-0.262717 -0.173462 1.522237 0.022974 0.878543 0.477111
0.511621 -0.161684 1.463263 0.022974 0.878543 0.477111
-0.486706 0.281984 0.694372 0.022974 0.878543 0.477111
0.401559 -1.056660 2.064472 0.054964 0.552115 0.831955
0.511621 -0.161684 1.463263 0.054964 0.552115 0.831955
-0.262717 -0.173462 1.522237 0.054964 0.552115 0.831955
0.401559 -1.056660 2.064472 0.054901 0.552083 0.831980
-0.262717 -0.173462 1.522237 0.054901 0.552083 0.831980
-0.044120 -1.063439 2.098380 0.054901 0.552083 0.831980
-0.044120 -1.063439 2.098380 -0.581281 0.336761 0.740746
-0.262717 -0.173462 1.522237 -0.581281 0.336761 0.740746
-0.629771 -0.572226 1.415488 -0.581281 0.336761 0.740746
-0.262717 -0.173462 1.522237 -0.706219 0.522029 0.478268
-0.486706 0.281984 0.694372 -0.706219 0.522029 0.478268
-0.629771 -0.572226 1.415488 -0.706219 0.522029 0.478268
-0.629771 -0.572226 1.415488 -0.824303 0.439418 0.356982
-0.486706 0.281984 0.694372 -0.824303 0.439418 0.356982
-0.791517 -0.276273 0.677706 -0.824303 0.439418 0.356982
-0.629771 -0.572226 1.415488 -0.970178 0.057055 0.235582
-0.791517 -0.276273 0.677706 -0.970178 0.057055 0.235582
-0.851443 -1.076396 0.624701 -0.970178 0.057055 0.235582
-0.044120 -1.063439 2.098380 -0.757849 0.003456 0.652421
-0.629771 -0.572226 1.415488 -0.757849 0.003456 0.652421
-0.564910 -1.136974 1.493823 -0.757849 0.003456 0.652421
-0.564910 -1.136974 1.493823 -0.948997 -0.066237 0.308249
-0.629771 -0.572226 1.415488 -0.948997 -0.066237 0.308249
-0.851443 -1.076396 0.624701 -0.948997 -0.066237 0.308249
0.745147 -1.052134 0.503106 0.996952 0.005124 0.077843
0.736491 -0.252926 0.561346 0.996952 0.005124 0.077843
0.679121 -0.552263 1.315811 0.996952 0.005124 0.077843
0.736491 -0.252926 0.561346 0.936074 0.296771 0.188926
0.551001 0.297772 0.615343 0.936074 0.296771 0.188926
0.679121 -0.552263 1.315811 0.936074 0.296771 0.188926
0.745147 -1.052134 0.503106 0.986887 -0.088794 0.134792
0.679121 -0.552263 1.315811 0.986887 -0.088794 0.134792
0.616102 -1.118936 1.403905 0.986887 -0.088794 0.134792
0.616102 -1.118936 1.403905 0.947978 -0.056726 0.313239
0.679121 -0.552263 1.315811 0.947978 -0.056726 0.313239
0.401559 -1.056660 2.064472 0.947978 -0.056726 0.313239
0.679121 -0.552263 1.315811 0.924430 0.315661 0.213979
0.551001 0.297772 0.615343 0.924430 0.315661 0.213979
0.511621 -0.161684 1.463263 0.924430 0.315661 0.213979
0.679121 -0.552263 1.315811 0.867233 0.199731 0.456087
0.511621 -0.161684 1.463263 0.867233 0.199731 0.456087
0.401559 -1.056660 2.064472 0.867233 0.199731 0.456087
-0.564910 -1.136974 1.493823 0.009696 -0.997306 -0.072709
-0.851443 -1.076396 0.624701 0.009696 -0.997306 -0.072709
0.616102 -1.118936 1.403905 0.009696 -0.997306 -0.072709
-0.564910 -1.136974 1.493823 0.022900 -0.994597 0.101251
0.616102 -1.118936 1.403905 0.022900 -0.994597 0.101251
-0.044120 -1.063439 2.098380 0.022900 -0.994597 0.101251
-0.044120 -1.063439 2.098380 0.022827 -0.994606 0.101182
0.616102 -1.118936 1.403905 0.022827 -0.994606 0.101182
0.401559 -1.056660 2.064472 0.022827 -0.994606 0.101182
-0.851443 -1.076396 0.624701 0.009628 -0.997316 -0.072580
0.745147 -1.052134 0.503106 0.009628 -0.997316 -0.072580
0.616102 -1.118936 1.403905 0.009628 -0.997316 -0.072580
0.199270 0.920740 -0.808676 -0.988466 -0.144165 0.046391
0.283808 0.353284 -0.770838 -0.988466 -0.144165 0.046391
0.258577 0.840273 0.204941 -0.988466 -0.144165 0.046391
0.199270 0.920740 -0.808676 -0.963422 0.256761 0.076753
0.258577 0.840273 0.204941 -0.963422 0.256761 0.076753
0.333385 1.131032 0.171277 -0.963422 0.256761 0.076753
0.258577 0.840273 0.204941 -0.986756 -0.153888 0.051287
0.283808 0.353284 -0.770838 -0.986756 -0.153888 0.051287
0.340308 0.283048 0.105468 -0.986756 -0.153888 0.051287
0.199270 0.920740 -0.808676 -0.959089 0.273656 0.072535
0.333385 1.131032 0.171277 -0.959089 0.273656 0.072535
0.287614 1.201523 -0.699888 -0.959089 0.273656 0.072535
0.185724 -0.030486 -0.884173 -0.949861 0.050995 -0.308485
0.300820 0.068316 -1.222234 -0.949861 0.050995 -0.308485
0.310794 -0.808707 -1.397927 -0.949861 0.050995 -0.308485
0.185724 -0.030486 -0.884173 -0.948419 0.053823 -0.312417
0.310794 -0.808707 -1.397927 -0.948419 0.053823 -0.312417
0.154492 -0.952594 -0.948220 -0.948419 0.053823 -0.312417
0.340896 0.645055 -0.847461 -0.939855 0.229628 -0.252871
0.300820 0.068316 -1.222234 -0.939855 0.229628 -0.252871
0.185724 -0.030486 -0.884173 -0.939855 0.229628 -0.252871
0.154492 -0.952594 -0.948220 -0.997026 -0.011758 0.076161
0.269385 -1.059746 0.539311 -0.997026 -0.011758 0.076161
0.264377 -0.259079 0.597371 -0.997026 -0.011758 0.076161
0.154492 -0.952594 -0.948220 -0.997896 0.029800 0.057575
0.264377 -0.259079 0.597371 -0.997896 0.029800 0.057575
0.185724 -0.030486 -0.884173 -0.997896 0.029800 0.057575
0.442366 -0.555990 1.333831 -0.973362 -0.025892 0.227808
0.262157 -0.260394 0.597449 -0.973362 -0.025892 0.227808
0.269805 -1.059615 0.539288 -0.973362 -0.025892 0.227808
0.535689 -1.120201 1.410026 -0.951862 -0.119313 0.282354
0.442366 -0.555990 1.333831 -0.951862 -0.119313 0.282354
0.269805 -1.059615 0.539288 -0.951862 -0.119313 0.282354
3 0 1 2
3 3 4 5
3 6 7 8
3 9 10 11
3 12 13 14
3 15 16 17
3 18 19 20
3 21 22 23
3 24 25 26
3 27 28 29
3 30 31 32
3 33 34 35
3 36 37 38
3 39 40 41
3 42 43 44
3 45 46 47
3 48 49 50
3 51 52 53
3 54 55 56
3 57 58 59
3 60 61 62
3 63 64 65
3 66 67 68
3 69 70 71
3 72 73 74
3 75 76 77
3 78 79 80
3 81 82 83
3 84 85 86
3 87 88 89
3 90 91 92
3 93 94 95
3 96 97 98
3 99 100 101
3 102 103 104
3 105 106 107
3 108 109 110
3 111 112 113
3 114 115 116
3 117 118 119
3 120 121 122
3 123 124 125
3 126 127 128
3 129 130 131
3 132 133 134
3 135 136 137
3 138 139 140
3 141 142 143
3 144 145 146
3 147 148 149
3 150 151 152
3 153 154 155
3 156 157 158
3 159 160 161
3 162 163 164
3 165 166 167
3 168 169 170
3 171 172 173
3 174 175 176
3 177 178 179
3 180 181 182
3 183 184 185
3 186 187 188
3 189 190 191
3 192 193 194
3 195 196 197
3 198 199 200
3 201 202 203
3 204 205 206
3 207 208 209
3 210 211 212
3 213 214 215
3 216 217 218
3 219 220 221
3 222 223 224
3 225 226 227
3 228 229 230
3 231 232 233
3 234 235 236
3 237 238 239
3 240 241 242
3 243 244 245
3 246 247 248
3 249 250 251
3 252 253 254
3 255 256 257
3 258 259 260
