ply
format ascii 1.0
comment Created by Blender 2.69 (sub 0) - www.blender.org, source file: ''
element vertex 78
property float x
property float y
property float z
property float nx
property float ny
property float nz
element face 26
property list uchar uint vertex_indices
end_header
0.378607 0.133348 -0.044896 0.327223 0.032073 -0.944403
-0.088387 -0.126115 -0.215515 0.327223 0.032073 -0.944403
0.087746 0.193875 -0.143620 0.327223 0.032073 -0.944403
0.378607 0.133348 -0.044896 0.322268 0.041860 -0.945723
0.205105 -0.170880 -0.117485 0.322268 0.041860 -0.945723
-0.088387 -0.126115 -0.215515 0.322268 0.041860 -0.945723
0.087746 0.193875 -0.143620 -0.804726 0.510880 -0.302352
-0.088387 -0.126115 -0.215515 -0.804726 0.510880 -0.302352
-0.183749 -0.098762 0.084514 -0.804726 0.510880 -0.302352
0.087746 0.193875 -0.143620 -0.805610 0.501453 -0.315496
-0.183749 -0.098762 0.084514 -0.805610 0.501453 -0.315496
-0.005961 0.231816 0.155962 -0.805610 0.501453 -0.315496
-0.005961 0.231816 0.155962 -0.321022 -0.031926 0.946534
-0.183749 -0.098762 0.084514 -0.321022 -0.031926 0.946534
0.109742 -0.143527 0.182543 -0.321022 -0.031926 0.946534
-0.005961 0.231816 0.155962 -0.327579 -0.034113 0.944208
0.109742 -0.143527 0.182543 -0.327579 -0.034113 0.944208
0.284901 0.171299 0.254686 -0.327579 -0.034113 0.944208
0.284901 0.171299 0.254686 0.802011 -0.515395 0.301904
0.109742 -0.143527 0.182543 0.802011 -0.515395 0.301904
0.205105 -0.170880 -0.117485 0.802011 -0.515395 0.301904
0.284901 0.171299 0.254686 0.790592 -0.525772 0.313893
0.205105 -0.170880 -0.117485 0.790592 -0.525772 0.313893
0.378607 0.133348 -0.044896 0.790592 -0.525772 0.313893
-0.183749 -0.098762 0.084514 -0.310065 0.052339 0.949274
-0.265662 -0.908845 0.102423 -0.310065 0.052339 0.949274
0.031056 -0.922007 0.200067 -0.310065 0.052339 0.949274
-0.183749 -0.098762 0.084514 -0.309137 0.052622 0.949561
0.031056 -0.922007 0.200067 -0.309137 0.052622 0.949561
0.109742 -0.143527 0.182543 -0.309137 0.052622 0.949561
0.109742 -0.143527 0.182543 0.946745 -0.088726 0.309519
0.031056 -0.922007 0.200067 0.946745 -0.088726 0.309519
0.128946 -0.925209 -0.100273 0.946745 -0.088726 0.309519
0.109742 -0.143527 0.182543 0.946915 -0.088551 0.309047
0.128946 -0.925209 -0.100273 0.946915 -0.088551 0.309047
0.205105 -0.170880 -0.117485 0.946915 -0.088551 0.309047
0.205105 -0.170880 -0.117485 0.310033 -0.052961 -0.949250
0.128946 -0.925209 -0.100273 0.310033 -0.052961 -0.949250
-0.167771 -0.912057 -0.197917 0.310033 -0.052961 -0.949250
0.205105 -0.170880 -0.117485 0.309159 -0.052488 -0.949561
-0.167771 -0.912057 -0.197917 0.309159 -0.052488 -0.949561
-0.088387 -0.126115 -0.215515 0.309159 -0.052488 -0.949561
-0.088387 -0.126115 -0.215515 -0.946746 0.088695 -0.309525
-0.167771 -0.912057 -0.197917 -0.946746 0.088695 -0.309525
-0.265662 -0.908845 0.102423 -0.946746 0.088695 -0.309525
-0.088387 -0.126115 -0.215515 -0.946876 0.088912 -0.309064
-0.265662 -0.908845 0.102423 -0.946876 0.088912 -0.309064
-0.183749 -0.098762 0.084514 -0.946876 0.088912 -0.309064
0.031056 -0.922007 0.200067 0.950671 0.018363 0.309657
0.151284 -1.786792 -0.117760 0.950671 0.018363 0.309657
0.128946 -0.925209 -0.100273 0.950671 0.018363 0.309657
0.031056 -0.922007 0.200067 0.950028 0.017533 0.311671
0.053154 -1.796244 0.181889 0.950028 0.017533 0.311671
0.151284 -1.786792 -0.117760 0.950028 0.017533 0.311671
0.128946 -0.925209 -0.100273 0.314846 0.027419 -0.948746
0.151284 -1.786792 -0.117760 0.314846 0.027419 -0.948746
-0.145399 -1.788598 -0.216268 0.314846 0.027419 -0.948746
0.128946 -0.925209 -0.100273 0.313583 0.027875 -0.949151
-0.145399 -1.788598 -0.216268 0.313583 0.027875 -0.949151
-0.167771 -0.912057 -0.197917 0.313583 0.027875 -0.949151
-0.167771 -0.912057 -0.197917 -0.949318 -0.017659 -0.313820
-0.145399 -1.788598 -0.216268 -0.949318 -0.017659 -0.313820
-0.247799 -1.654646 0.085958 -0.949318 -0.017659 -0.313820
-0.167771 -0.912057 -0.197917 -0.950702 -0.015934 -0.309696
-0.247799 -1.654646 0.085958 -0.950702 -0.015934 -0.309696
-0.265662 -0.908845 0.102423 -0.950702 -0.015934 -0.309696
-0.265662 -0.908845 0.102423 -0.315726 -0.028500 0.948422
-0.247799 -1.654646 0.085958 -0.315726 -0.028500 0.948422
0.053154 -1.796244 0.181889 -0.315726 -0.028500 0.948422
-0.265662 -0.908845 0.102423 -0.313577 -0.027662 0.949160
0.053154 -1.796244 0.181889 -0.313577 -0.027662 0.949160
0.031056 -0.922007 0.200067 -0.313577 -0.027662 0.949160
-0.145399 -1.788598 -0.216268 -0.116922 -0.922028 0.369045
0.151284 -1.786792 -0.117760 -0.116922 -0.922028 0.369045
-0.247799 -1.654646 0.085958 -0.116922 -0.922028 0.369045
-0.247799 -1.654646 0.085958 -0.380268 -0.912083 -0.153301
0.151284 -1.786792 -0.117760 -0.380268 -0.912083 -0.153301
0.053154 -1.796244 0.181889 -0.380268 -0.912083 -0.153301
3 0 1 2
3 3 4 5
3 6 7 8
3 9 10 11
3 12 13 14
3 15 16 17
3 18 19 20
3 21 22 23
3 24 25 26
3 27 28 29
3 30 31 32
3 33 34 35
3 36 37 38
3 39 40 41
3 42 43 44
3 45 46 47
3 48 49 50
3 51 52 53
3 54 55 56
3 57 58 59
3 60 61 62
3 63 64 65
3 66 67 68
3 69 70 71
3 72 73 74
3 75 76 77
