ply
format ascii 1.0
comment Created by Blender 2.69 (sub 0) - www.blender.org, source file: ''
element vertex 287
property float x
property float y
property float z
property float nx
property float ny
property float nz
element face 97
property list uchar uint vertex_indices
end_header
-0.761477 0.902286 0.032782 -0.415089 0.909453 -0.024419
-0.019130 1.257808 0.654888 -0.415089 0.909453 -0.024419
-0.023255 1.238824 0.017971 -0.415089 0.909453 -0.024419
-0.761477 0.902286 0.032782 -0.390253 0.839400 -0.378298
-0.023255 1.238824 0.017971 -0.390253 0.839400 -0.378298
-0.391421 0.821934 -0.527259 -0.390253 0.839400 -0.378298
-0.901394 0.122646 0.085926 -0.822012 0.109427 -0.558857
-0.761477 0.902286 0.032782 -0.822012 0.109427 -0.558857
-0.391421 0.821934 -0.527259 -0.822012 0.109427 -0.558857
-0.761477 0.902286 0.032782 -0.984261 0.176715 0.001105
-0.901394 0.122646 0.085926 -0.984261 0.176715 0.001105
-0.757353 0.921269 0.669700 -0.984261 0.176715 0.001105
-0.757353 0.921269 0.669700 -0.415089 0.909453 -0.024419
-0.391421 0.821934 -0.527259 -0.019820 0.800650 -0.598804
-0.023255 1.238824 0.017971 -0.019820 0.800650 -0.598804
0.353140 0.836437 -0.532512 -0.019820 0.800650 -0.598804
-0.009408 0.948278 1.178300 -0.345522 0.815198 0.464831
-0.757353 0.921269 0.669700 -0.345522 0.815198 0.464831
-0.555757 0.710652 1.188921 -0.345522 0.815198 0.464831
-0.555757 0.710652 1.188921 -0.897013 0.158544 0.412591
-0.757353 0.921269 0.669700 -0.897013 0.158544 0.412591
-0.897646 0.139903 0.664941 -0.897013 0.158544 0.412591
-0.901394 0.122646 0.085926 -0.984261 0.176716 0.001105
-0.897646 0.139903 0.664941 -0.984261 0.176716 0.001105
-0.757353 0.921269 0.669700 -0.984261 0.176716 0.001105
-0.019130 1.257808 0.654888 -0.355757 0.801531 0.480609
-0.757353 0.921269 0.669700 -0.355757 0.801531 0.480609
-0.009408 0.948278 1.178300 -0.355757 0.801531 0.480609
-0.555757 0.710652 1.188921 -0.898566 0.164906 0.406675
-0.897646 0.139903 0.664941 -0.898566 0.164906 0.406675
-0.627945 0.162626 1.251643 -0.898566 0.164906 0.406675
-0.627945 0.162626 1.251643 -0.862235 -0.300162 0.407986
-0.897646 0.139903 0.664941 -0.862235 -0.300162 0.407986
-0.618742 -0.632430 0.686155 -0.862235 -0.300162 0.407986
-0.622491 -0.649688 0.107140 -0.940570 -0.339212 0.016200
-0.618742 -0.632430 0.686155 -0.940570 -0.339212 0.016200
-0.897646 0.139903 0.664941 -0.940570 -0.339212 0.016200
-0.622491 -0.649688 0.107140 -0.940571 -0.339212 0.016199
-0.897646 0.139903 0.664941 -0.940571 -0.339212 0.016199
-0.901394 0.122646 0.085926 -0.940571 -0.339212 0.016199
-0.627945 0.162626 1.251643 -0.798518 -0.355014 0.486142
-0.618742 -0.632430 0.686155 -0.798518 -0.355014 0.486142
-0.409372 -0.382702 1.212426 -0.798518 -0.355014 0.486142
-0.622491 -0.649688 0.107140 -0.434022 -0.900414 0.029648
0.020228 -0.959328 0.112208 -0.434022 -0.900414 0.029648
-0.618742 -0.632430 0.686155 -0.434022 -0.900414 0.029648
-0.618742 -0.632430 0.686155 -0.434023 -0.900414 0.029647
0.020228 -0.959328 0.112208 -0.434023 -0.900414 0.029647
0.023977 -0.942070 0.691224 -0.434023 -0.900414 0.029647
-0.618742 -0.632430 0.686155 -0.375331 -0.770644 0.515009
0.023977 -0.942070 0.691224 -0.375331 -0.770644 0.515009
-0.409372 -0.382702 1.212426 -0.375331 -0.770644 0.515009
0.008926 -0.553316 -0.368694 -0.342955 -0.721711 -0.601261
0.020228 -0.959328 0.112208 -0.342955 -0.721711 -0.601261
-0.622491 -0.649688 0.107140 -0.342955 -0.721711 -0.601261
0.008926 -0.553316 -0.368694 -0.303033 -0.772168 -0.558505
-0.622491 -0.649688 0.107140 -0.303033 -0.772168 -0.558505
-0.387622 -0.396162 -0.370810 -0.303033 -0.772168 -0.558505
-0.387622 -0.396162 -0.370810 -0.784501 -0.298232 -0.543706
-0.622491 -0.649688 0.107140 -0.784501 -0.298232 -0.543706
-0.901394 0.122646 0.085926 -0.784501 -0.298232 -0.543706
-0.006723 0.177385 -0.569455 -0.100140 -0.265595 -0.958870
0.008926 -0.553316 -0.368694 -0.100140 -0.265595 -0.958870
-0.387622 -0.396162 -0.370810 -0.100140 -0.265595 -0.958870
-0.387622 -0.396162 -0.370810 -0.732815 -0.678293 -0.053853
-0.901394 0.122646 0.085926 -0.732815 -0.678293 -0.053853
-0.906211 0.165173 -0.384184 -0.732815 -0.678293 -0.053853
-0.391421 0.821934 -0.527259 -0.778536 0.624281 0.064452
-0.906211 0.165173 -0.384184 -0.778536 0.624281 0.064452
-0.901394 0.122646 0.085926 -0.778536 0.624281 0.064452
-0.682266 0.255757 -1.327571 -0.931462 0.309424 -0.191404
-0.890087 -0.128156 -0.936847 -0.931462 0.309424 -0.191404
-0.906211 0.165173 -0.384184 -0.931462 0.309424 -0.191404
-0.682266 0.255757 -1.327571 -0.793911 0.593653 -0.131460
-0.906211 0.165173 -0.384184 -0.793911 0.593653 -0.131460
-0.391421 0.821934 -0.527259 -0.793911 0.593653 -0.131460
-0.890087 -0.128156 -0.936847 -0.699975 -0.639076 0.318773
-0.387622 -0.396162 -0.370810 -0.699975 -0.639076 0.318773
-0.906211 0.165173 -0.384184 -0.699975 -0.639076 0.318773
-0.762691 -0.886492 -1.684345 -0.929234 0.168186 -0.328994
-0.890087 -0.128156 -0.936847 -0.929234 0.168186 -0.328994
-0.682266 0.255757 -1.327571 -0.929234 0.168186 -0.328994
-0.762691 -0.886492 -1.684345 -0.683954 -0.567171 0.458828
-0.554560 -0.500997 -0.897571 -0.683954 -0.567171 0.458828
-0.890087 -0.128156 -0.936847 -0.683954 -0.567171 0.458828
-0.554560 -0.500997 -0.897571 -0.714944 -0.606803 0.347340
-0.387622 -0.396162 -0.370810 -0.714944 -0.606803 0.347340
-0.890087 -0.128156 -0.936847 -0.714944 -0.606803 0.347340
-0.409372 -0.382702 1.212426 -0.308943 -0.765388 0.564566
0.023977 -0.942070 0.691224 -0.308943 -0.765388 0.564566
0.020605 -0.603304 1.148647 -0.308943 -0.765388 0.564566
-0.391421 0.821934 -0.527259 -0.008219 0.060439 -0.998138
0.353140 0.836437 -0.532512 -0.008219 0.060439 -0.998138
-0.006723 0.177385 -0.569455 -0.008219 0.060439 -0.998138
-0.006723 0.177385 -0.569455 -0.713193 0.420849 -0.560573
0.353140 0.836437 -0.532512 -0.713193 0.420849 -0.560573
0.229350 -0.152729 -1.117633 -0.713193 0.420849 -0.560573
0.353140 0.836437 -0.532512 -0.716389 0.419452 -0.557536
0.654494 0.281795 -1.337002 -0.716389 0.419452 -0.557536
0.229350 -0.152729 -1.117633 -0.716389 0.419452 -0.557536
0.774298 -0.856553 -1.695189 -0.733484 -0.668551 0.122639
0.562431 -0.479239 -0.905453 -0.733484 -0.668551 0.122639
0.229350 -0.152729 -1.117633 -0.733484 -0.668551 0.122639
0.229350 -0.152729 -1.117633 -0.674546 -0.734739 -0.071735
0.562431 -0.479239 -0.905453 -0.674546 -0.734739 -0.071735
0.398985 -0.380840 -0.376360 -0.674546 -0.734739 -0.071735
0.229350 -0.152729 -1.117633 -0.809688 -0.586841 0.004704
0.398985 -0.380840 -0.376360 -0.809688 -0.586841 0.004704
-0.006723 0.177385 -0.569455 -0.809688 -0.586841 0.004704
0.229350 -0.152729 -1.117633 -0.592851 0.184278 -0.783945
0.654494 0.281795 -1.337002 -0.592851 0.184278 -0.783945
0.774298 -0.856553 -1.695189 -0.592851 0.184278 -0.783945
0.442523 -0.366109 1.206416 0.369800 -0.780539 0.503991
0.020605 -0.603304 1.148647 0.369800 -0.780539 0.503991
0.654015 -0.607638 0.677176 0.369800 -0.780539 0.503991
0.640226 0.187329 1.242694 0.859415 -0.332467 0.388423
0.442523 -0.366109 1.206416 0.859415 -0.332467 0.388423
0.902305 0.174964 0.652242 0.859415 -0.332467 0.388423
0.902305 0.174964 0.652242 0.851862 -0.255700 0.457109
0.442523 -0.366109 1.206416 0.851862 -0.255700 0.457109
0.654015 -0.607638 0.677176 0.851862 -0.255700 0.457109
0.654015 -0.607638 0.677176 0.402018 -0.734394 0.546852
0.020605 -0.603304 1.148647 0.402018 -0.734394 0.546852
0.023977 -0.942070 0.691224 0.402018 -0.734394 0.546852
0.654015 -0.607638 0.677176 0.469132 -0.882822 0.023275
0.023977 -0.942070 0.691224 0.469132 -0.882822 0.023275
0.650265 -0.624896 0.098160 0.469132 -0.882822 0.023275
0.902305 0.174964 0.652242 0.953201 -0.302324 0.002838
0.654015 -0.607638 0.677176 0.953201 -0.302324 0.002838
0.898555 0.157706 0.073226 0.953201 -0.302324 0.002838
0.898555 0.157706 0.073226 0.953201 -0.302324 0.002839
0.654015 -0.607638 0.677176 0.953201 -0.302324 0.002839
0.650265 -0.624896 0.098160 0.953201 -0.302324 0.002839
0.731772 0.950276 0.659193 0.898143 0.194012 0.394588
0.640226 0.187329 1.242694 0.898143 0.194012 0.394588
0.902305 0.174964 0.652242 0.898143 0.194012 0.394588
0.731772 0.950276 0.659193 0.976551 0.214910 -0.012728
0.902305 0.174964 0.652242 0.976551 0.214910 -0.012728
0.727648 0.931292 0.022275 0.976551 0.214910 -0.012728
0.727648 0.931292 0.022275 0.976551 0.214909 -0.012729
0.902305 0.174964 0.652242 0.976551 0.214909 -0.012729
0.898555 0.157706 0.073226 0.976551 0.214909 -0.012729
0.545875 0.732111 1.181148 0.893541 0.200156 0.401899
0.640226 0.187329 1.242694 0.893541 0.200156 0.401899
0.731772 0.950276 0.659193 0.893541 0.200156 0.401899
-0.019130 1.257808 0.654888 0.333803 0.821517 0.462260
0.545875 0.732111 1.181148 0.333803 0.821517 0.462260
0.731772 0.950276 0.659193 0.333803 0.821517 0.462260
-0.019130 1.257808 0.654888 0.378974 0.924920 -0.030022
0.731772 0.950276 0.659193 0.378974 0.924920 -0.030022
-0.023255 1.238824 0.017971 0.378974 0.924920 -0.030022
-0.023255 1.238824 0.017971 0.378973 0.924920 -0.030022
0.731772 0.950276 0.659193 0.378973 0.924920 -0.030022
0.727648 0.931292 0.022275 0.378973 0.924920 -0.030022
0.727648 0.931292 0.022275 0.809163 0.141201 -0.570366
0.898555 0.157706 0.073226 0.809163 0.141201 -0.570366
0.353140 0.836437 -0.532512 0.809163 0.141201 -0.570366
-0.023255 1.238824 0.017971 0.351895 0.853857 -0.383534
0.727648 0.931292 0.022275 0.351895 0.853857 -0.383534
0.353140 0.836437 -0.532512 0.351895 0.853857 -0.383534
0.353140 0.836437 -0.532512 0.768258 0.624082 -0.142482
0.895081 0.200260 -0.396893 0.768258 0.624082 -0.142482
0.654494 0.281795 -1.337002 0.768258 0.624082 -0.142482
0.353140 0.836437 -0.532512 0.754467 0.654143 0.053636
0.898555 0.157706 0.073226 0.754467 0.654143 0.053636
0.895081 0.200260 -0.396893 0.754467 0.654143 0.053636
0.654494 0.281795 -1.337002 0.915008 0.348071 -0.203976
0.895081 0.200260 -0.396893 0.915008 0.348071 -0.203976
0.874200 -0.072381 -0.955805 0.915008 0.348071 -0.203976
0.398985 -0.380840 -0.376360 0.736129 -0.618754 0.274330
0.874200 -0.072381 -0.955805 0.736129 -0.618754 0.274330
0.895081 0.200260 -0.396893 0.736129 -0.618754 0.274330
0.398985 -0.380840 -0.376360 0.757840 -0.649257 -0.064370
0.895081 0.200260 -0.396893 0.757840 -0.649257 -0.064370
0.898555 0.157706 0.073226 0.757840 -0.649257 -0.064370
0.654494 0.281795 -1.337002 0.918122 0.203608 -0.339994
0.874200 -0.072381 -0.955805 0.918122 0.203608 -0.339994
0.774298 -0.856553 -1.695189 0.918122 0.203608 -0.339994
0.774298 -0.856553 -1.695189 0.737643 -0.510563 0.441824
0.874200 -0.072381 -0.955805 0.737643 -0.510563 0.441824
0.562431 -0.479239 -0.905453 0.737643 -0.510563 0.441824
0.562431 -0.479239 -0.905453 0.766695 -0.545634 0.338322
0.874200 -0.072381 -0.955805 0.766695 -0.545634 0.338322
0.398985 -0.380840 -0.376360 0.766695 -0.545634 0.338322
0.898555 0.157706 0.073226 0.787773 -0.267606 -0.554798
0.650265 -0.624896 0.098160 0.787773 -0.267606 -0.554798
0.398985 -0.380840 -0.376360 0.787773 -0.267606 -0.554798
0.020228 -0.959328 0.112208 0.469132 -0.882822 0.023275
-0.019130 1.257808 0.654888 0.316413 0.819093 0.478509
-0.009408 0.948278 1.178300 0.316413 0.819093 0.478509
0.545875 0.732111 1.181148 0.316413 0.819093 0.478509
0.650265 -0.624896 0.098160 0.362284 -0.707974 -0.606237
0.020228 -0.959328 0.112208 0.362284 -0.707974 -0.606237
0.008926 -0.553316 -0.368694 0.362284 -0.707974 -0.606237
0.398985 -0.380840 -0.376360 0.324964 -0.759935 -0.562935
0.650265 -0.624896 0.098160 0.324964 -0.759935 -0.562935
0.008926 -0.553316 -0.368694 0.324964 -0.759935 -0.562935
0.398985 -0.380840 -0.376360 0.096871 -0.261758 -0.960260
0.008926 -0.553316 -0.368694 0.096871 -0.261758 -0.960260
-0.006723 0.177385 -0.569455 0.096871 -0.261758 -0.960260
-0.006723 0.177385 -0.569455 0.831912 -0.554865 -0.006880
-0.387622 -0.396162 -0.370810 0.831912 -0.554865 -0.006880
-0.237472 -0.161823 -1.114339 0.831912 -0.554865 -0.006880
-0.237472 -0.161823 -1.114339 0.701567 -0.707934 -0.081445
-0.387622 -0.396162 -0.370810 0.701567 -0.707934 -0.081445
-0.554560 -0.500997 -0.897571 0.701567 -0.707934 -0.081445
-0.237472 -0.161823 -1.114339 0.760619 -0.639447 0.112098
-0.554560 -0.500997 -0.897571 0.760619 -0.639447 0.112098
-0.762691 -0.886492 -1.684345 0.760619 -0.639447 0.112098
-0.391421 0.821934 -0.527259 0.688285 0.448148 -0.570463
-0.006723 0.177385 -0.569455 0.688285 0.448148 -0.570463
-0.237472 -0.161823 -1.114339 0.688285 0.448148 -0.570463
-0.391421 0.821934 -0.527259 0.691578 0.446877 -0.567469
-0.237472 -0.161823 -1.114339 0.691578 0.446877 -0.567469
-0.682266 0.255757 -1.327571 0.691578 0.446877 -0.567469
-0.682266 0.255757 -1.327571 0.574109 0.207009 -0.792178
-0.237472 -0.161823 -1.114339 0.574109 0.207009 -0.792178
-0.762691 -0.886492 -1.684345 0.574109 0.207009 -0.792178
0.020605 -0.603304 1.148647 0.077950 -0.364641 0.927879
0.442523 -0.366109 1.206416 0.077950 -0.364641 0.927879
0.007506 0.181263 1.458070 0.077950 -0.364641 0.927879
0.020605 -0.603304 1.148647 -0.050597 -0.367145 0.928786
0.007506 0.181263 1.458070 -0.050597 -0.367145 0.928786
-0.409372 -0.382702 1.212426 -0.050597 -0.367145 0.928786
-0.409372 -0.382702 1.212426 -0.298546 -0.186964 0.935903
0.007506 0.181263 1.458070 -0.298546 -0.186964 0.935903
-0.627945 0.162626 1.251643 -0.298546 -0.186964 0.935903
0.545875 0.732111 1.181148 0.316684 0.160462 0.934860
0.007506 0.181263 1.458070 0.316684 0.160462 0.934860
0.640226 0.187329 1.242694 0.316684 0.160462 0.934860
0.640226 0.187329 1.242694 0.318772 -0.174938 0.931548
0.007506 0.181263 1.458070 0.318772 -0.174938 0.931548
0.442523 -0.366109 1.206416 0.318772 -0.174938 0.931548
0.545875 0.732111 1.181148 0.128492 0.342327 0.930754
-0.009408 0.948278 1.178300 0.128492 0.342327 0.930754
0.007506 0.181263 1.458070 0.128492 0.342327 0.930754
0.007506 0.181263 1.458070 -0.128584 0.337319 0.932567
-0.009408 0.948278 1.178300 -0.128584 0.337319 0.932567
-0.555757 0.710652 1.188921 -0.128584 0.337319 0.932567
0.007506 0.181263 1.458070 -0.309475 0.148265 0.939278
-0.555757 0.710652 1.188921 -0.309475 0.148265 0.939278
-0.627945 0.162626 1.251643 -0.309475 0.148265 0.939278
-0.434135 0.904696 0.756896 -0.100259 -0.994132 0.040628
-0.013945 0.841182 0.239694 -0.100259 -0.994132 0.040628
-0.010017 0.866379 0.865937 -0.100259 -0.994132 0.040628
-0.010017 0.866379 0.865937 0.139457 -0.989462 0.038936
-0.013945 0.841182 0.239694 0.139457 -0.989462 0.038936
0.410708 0.921152 0.750936 0.139457 -0.989462 0.038936
-0.372660 0.629485 0.534190 0.898049 0.416574 -0.141331
-0.378325 0.540084 0.234684 0.898049 0.416574 -0.141331
-0.524748 0.928466 0.449044 0.898049 0.416574 -0.141331
-0.524748 0.928466 0.449044 0.917031 0.139515 0.373617
-0.378325 0.540084 0.234684 0.917031 0.139515 0.373617
-0.387079 0.841926 0.143457 0.917031 0.139515 0.373617
0.492449 0.945403 0.448081 -0.872895 0.409000 0.266032
0.357506 0.856531 0.141945 -0.872895 0.409000 0.266032
0.369028 0.631527 0.525672 -0.872895 0.409000 0.266032
0.369028 0.631527 0.525672 -0.997702 -0.067098 -0.009386
0.357506 0.856531 0.141945 -0.997702 -0.067098 -0.009386
0.377193 0.552420 0.223344 -0.997702 -0.067098 -0.009386
0.015598 -1.056821 -0.826439 0.900952 0.382225 -0.205400
0.211660 -1.353213 -0.517995 0.900952 0.382225 -0.205400
0.018151 -1.712557 -2.035492 0.900952 0.382225 -0.205400
0.015598 -1.056821 -0.826439 0.908571 0.264803 -0.323076
-0.000061 -0.333174 -0.277353 0.908571 0.264803 -0.323076
0.211660 -1.353213 -0.517995 0.908571 0.264803 -0.323076
0.211660 -1.353213 -0.517995 0.893872 0.269973 -0.357922
-0.000061 -0.333174 -0.277353 0.893872 0.269973 -0.357922
0.292536 -0.752246 0.137280 0.893872 0.269973 -0.357922
0.018151 -1.712557 -2.035492 0.015005 -0.973407 0.228590
0.211660 -1.353213 -0.517995 0.015005 -0.973407 0.228590
-0.131393 -1.361278 -0.529819 0.015005 -0.973407 0.228590
0.018151 -1.712557 -2.035492 -0.941237 0.296055 -0.162554
-0.131393 -1.361278 -0.529819 -0.941237 0.296055 -0.162554
0.015598 -1.056821 -0.826439 -0.941237 0.296055 -0.162554
-0.131393 -1.361278 -0.529819 -0.938261 0.148679 -0.312349
-0.251675 -0.762272 0.116626 -0.938261 0.148679 -0.312349
0.015598 -1.056821 -0.826439 -0.938261 0.148679 -0.312349
0.015598 -1.056821 -0.826439 -0.914506 0.231805 -0.331579
-0.251675 -0.762272 0.116626 -0.914506 0.231805 -0.331579
-0.000061 -0.333174 -0.277353 -0.914506 0.231805 -0.331579
0.211660 -1.353213 -0.517995 -0.005994 -0.736605 0.676297
0.292536 -0.752246 0.137280 -0.005994 -0.736605 0.676297
-0.131393 -1.361278 -0.529819 -0.005994 -0.736605 0.676297
-0.131393 -1.361278 -0.529819 -0.012214 -0.734586 0.678406
0.292536 -0.752246 0.137280 -0.012214 -0.734586 0.678406
-0.251675 -0.762272 0.116626 -0.012214 -0.734586 0.678406
3 0 1 2
3 3 4 5
3 6 7 8
3 9 10 11
3 0 12 1
3 13 14 15
3 16 17 18
3 19 20 21
3 22 23 24
3 25 26 27
3 28 29 30
3 31 32 33
3 34 35 36
3 37 38 39
3 40 41 42
3 43 44 45
3 46 47 48
3 49 50 51
3 52 53 54
3 55 56 57
3 58 59 60
3 61 62 63
3 64 65 66
3 67 68 69
3 70 71 72
3 73 74 75
3 76 77 78
3 79 80 81
3 82 83 84
3 85 86 87
3 88 89 90
3 91 92 93
3 94 95 96
3 97 98 99
3 100 101 102
3 103 104 105
3 106 107 108
3 109 110 111
3 112 113 114
3 115 116 117
3 118 119 120
3 121 122 123
3 124 125 126
3 127 128 129
3 130 131 132
3 133 134 135
3 136 137 138
3 139 140 141
3 142 143 144
3 145 146 147
3 148 149 150
3 151 152 153
3 154 155 156
3 157 158 159
3 160 161 162
3 163 164 165
3 166 167 168
3 169 170 171
3 172 173 174
3 175 176 177
3 178 179 180
3 181 182 183
3 184 185 186
3 126 125 187
3 188 189 190
3 191 192 193
3 194 195 196
3 197 198 199
3 200 201 202
3 203 204 205
3 206 207 208
3 209 210 211
3 212 213 214
3 215 216 217
3 218 219 220
3 221 222 223
3 224 225 226
3 227 228 229
3 230 231 232
3 233 234 235
3 236 237 238
3 239 240 241
3 242 243 244
3 245 246 247
3 248 249 250
3 251 252 253
3 254 255 256
3 257 258 259
3 260 261 262
3 263 264 265
3 266 267 268
3 269 270 271
3 272 273 274
3 275 276 277
3 278 279 280
3 281 282 283
3 284 285 286
